<svg width="1627.9200195312499px" height="184.439990234375px" xmlns="http://www.w3.org/2000/svg" viewBox="-563.9600097656249 -17.219995117187494 1627.9200195312499 184.439990234375" style="background: none;" preserveAspectRatio="xMidYMid"><defs><filter id="editing-hole" x="-100%" y="-100%" width="300%" height="300%"><feFlood flood-color="#dce4eb" result="black"></feFlood><feMorphology operator="dilate" radius="2" in="SourceGraphic" result="erode"></feMorphology><feGaussianBlur in="erode" stdDeviation="4" result="blur"></feGaussianBlur><feOffset in="blur" dx="2" dy="2" result="offset"></feOffset><feComposite operator="atop" in="offset" in2="black" result="merge"></feComposite><feComposite operator="in" in="merge" in2="SourceGraphic" result="inner-shadow"></feComposite></filter></defs><g filter="url(#editing-hole)"><g transform="translate(-338.435046389699, 115.24000072479248)"><path d="M41.51-47.12L41.51-47.12L41.51-47.12Q43.04-50.18 43.04-53.04L43.04-53.04L43.04-53.04Q43.04-55.90 42.74-57.48L42.74-57.48L42.74-57.48Q42.43-59.06 41.72-60.28L41.72-60.28L41.72-60.28Q40.19-62.93 37.13-62.93L37.13-62.93L37.13-62.93Q33.35-62.93 30.29-60.18L30.29-60.18L30.29-60.18Q27.03-57.32 27.03-52.84L27.03-52.84L27.03-52.84Q27.03-49.98 29.02-47.79L29.02-47.79L29.02-47.79Q31.01-45.59 34.07-43.55L34.07-43.55L34.07-43.55Q37.13-41.51 40.60-39.47L40.60-39.47L40.60-39.47Q44.06-37.43 47.12-34.99L47.12-34.99L47.12-34.99Q54.16-29.38 54.16-21.83L54.16-21.83L54.16-21.83Q54.16-16.73 51.46-12.39L51.46-12.39L51.46-12.39Q48.76-8.06 44.27-4.90L44.27-4.90L44.27-4.90Q34.48 2.04 21.52 2.04L21.52 2.04L21.52 2.04Q11.02 2.04 5.61-1.38L5.61-1.38L5.61-1.38Q0.20-4.79 0.20-10.00L0.20-10.00L0.20-10.00Q0.20-19.28 7.45-21.62L7.45-21.62L7.45-21.62Q9.49-22.34 12.60-22.34L12.60-22.34L12.60-22.34Q15.71-22.34 19.28-21.01L19.28-21.01L19.28-21.01Q17.65-16.83 17.65-13.06L17.65-13.06L17.65-13.06Q17.65-4.90 23.46-4.90L23.46-4.90L23.46-4.90Q27.23-4.90 30.35-7.65L30.35-7.65L30.35-7.65Q33.46-10.40 33.46-13.52L33.46-13.52L33.46-13.52Q33.46-16.63 31.47-18.87L31.47-18.87L31.47-18.87Q29.48-21.11 26.52-22.90L26.52-22.90L26.52-22.90Q23.56-24.68 20.15-26.42L20.15-26.42L20.15-26.42Q16.73-28.15 13.77-30.60L13.77-30.60L13.77-30.60Q6.83-36.21 6.83-45.19L6.83-45.19L6.83-45.19Q6.83-51.00 9.69-55.54L9.69-55.54L9.69-55.54Q12.55-60.08 17.14-63.14L17.14-63.14L17.14-63.14Q26.32-69.36 37.59-69.36L37.59-69.36L37.59-69.36Q48.86-69.36 54.32-65.99L54.32-65.99L54.32-65.99Q59.77-62.63 59.77-56.92L59.77-56.92L59.77-56.92Q59.77-51.92 55.90-48.76L55.90-48.76L55.90-48.76Q52.53-46.10 48.45-46.10L48.45-46.10L48.45-46.10Q44.37-46.10 41.51-47.12ZM86.39-5.61L86.39-5.61L86.39-5.61Q83.23 2.04 73.13 2.04L73.13 2.04L73.13 2.04Q67.93 2.04 64.67-1.53L64.67-1.53L64.67-1.53Q61.91-4.69 61.91-7.85L61.91-7.85L61.91-7.85Q61.91-16.12 65.69-32.23L65.69-32.23L69.46-52.02L90.17-54.06L83.95-21.83L83.95-21.83Q82.21-14.28 82.21-11.63L82.21-11.63L82.21-11.63Q82.21-5.81 86.39-5.61ZM71.30-66.20L71.30-66.20L71.30-66.20Q71.30-70.18 74.61-72.32L74.61-72.32L74.61-72.32Q77.93-74.46 82.72-74.46L82.72-74.46L82.72-74.46Q87.52-74.46 90.42-72.32L90.42-72.32L90.42-72.32Q93.33-70.18 93.33-66.20L93.33-66.20L93.33-66.20Q93.33-62.22 90.12-60.18L90.12-60.18L90.12-60.18Q86.90-58.14 82.11-58.14L82.11-58.14L82.11-58.14Q77.32-58.14 74.31-60.18L74.31-60.18L74.31-60.18Q71.30-62.22 71.30-66.20ZM119.44-5.61L119.44-5.61L119.44-5.61Q116.28 2.04 106.18 2.04L106.18 2.04L106.18 2.04Q101.08 2.04 97.82-1.53L97.82-1.53L97.82-1.53Q95.17-4.49 95.17-7.85L95.17-7.85L95.17-7.85Q95.17-15.50 98.74-32.23L98.74-32.23L106.18-71.40L126.89-73.44L116.99-21.83L116.99-21.83Q115.26-14.28 115.26-11.63L115.26-11.63L115.26-11.63Q115.26-5.81 119.44-5.61ZM165.14-50.29L165.14-50.29L165.14-50.29Q168.50-54.06 174.32-54.06L174.32-54.06L174.32-54.06Q177.89-54.06 180.64-52.12L180.64-52.12L180.64-52.12Q183.40-50.18 183.40-46.56L183.40-46.56L183.40-46.56Q183.40-42.94 182.27-39.07L182.27-39.07L182.27-39.07Q181.15-35.19 179.42-31.21L179.42-31.21L179.42-31.21Q175.95-23.46 171.16-17.03L171.16-17.03L171.16-17.03Q164.42-7.75 157.95-2.86L157.95-2.86L157.95-2.86Q151.47 2.04 144.43 2.04L144.43 2.04L144.43 2.04Q138.72 2.04 135.25 0.71L135.25 0.71L135.25 0.71Q134.64-20.71 133.88-28.36L133.88-28.36L133.88-28.36Q133.11-36.01 132.50-40.19L132.50-40.19L132.50-40.19Q131.48-48.35 128.42-50.29L128.42-50.29L128.42-50.29Q130.76-52.33 133.06-53.19L133.06-53.19L133.06-53.19Q135.35-54.06 140.10-54.06L140.10-54.06L140.10-54.06Q144.84-54.06 148.21-50.34L148.21-50.34L148.21-50.34Q151.57-46.61 152.24-40.04L152.24-40.04L152.24-40.04Q152.90-33.46 152.90-25.50L152.90-25.50L152.90-25.50Q152.90-17.54 152.29-7.96L152.29-7.96L152.29-7.96Q155.45-10.20 158.81-17.03L158.81-17.03L158.81-17.03Q163.40-26.52 165.04-37.94L165.04-37.94L165.04-37.94Q165.55-41.41 165.55-45.08L165.55-45.08L165.55-45.08Q165.55-48.76 165.14-50.29ZM210.63-5.61L210.63-5.61L210.63-5.61Q207.47 2.04 197.37 2.04L197.37 2.04L197.37 2.04Q192.17 2.04 188.90-1.53L188.90-1.53L188.90-1.53Q186.15-4.69 186.15-7.85L186.15-7.85L186.15-7.85Q186.15-16.12 189.92-32.23L189.92-32.23L193.70-52.02L214.40-54.06L208.18-21.83L208.18-21.83Q206.45-14.28 206.45-11.63L206.45-11.63L206.45-11.63Q206.45-5.81 210.63-5.61ZM195.53-66.20L195.53-66.20L195.53-66.20Q195.53-70.18 198.85-72.32L198.85-72.32L198.85-72.32Q202.16-74.46 206.96-74.46L206.96-74.46L206.96-74.46Q211.75-74.46 214.66-72.32L214.66-72.32L214.66-72.32Q217.57-70.18 217.57-66.20L217.57-66.20L217.57-66.20Q217.57-62.22 214.35-60.18L214.35-60.18L214.35-60.18Q211.14-58.14 206.35-58.14L206.35-58.14L206.35-58.14Q201.55-58.14 198.54-60.18L198.54-60.18L198.54-60.18Q195.53-62.22 195.53-66.20ZM223.74-3.06L223.74-3.06L223.74-3.06Q221.34-5.71 220.27-9.89L220.27-9.89L220.27-9.89Q219.20-14.08 219.20-20.91L219.20-20.91L219.20-20.91Q219.20-27.74 221.54-33.97L221.54-33.97L221.54-33.97Q223.89-40.19 228.17-44.68L228.17-44.68L228.17-44.68Q236.95-54.06 251.43-54.06L251.43-54.06L251.43-54.06Q256.63-54.06 260.41-52.33L260.41-52.33L277.85-54.06L270.30-14.28L270.30-14.28Q269.99-13.06 269.99-10.81L269.99-10.81L269.99-10.81Q269.99-8.57 271.37-7.14L271.37-7.14L271.37-7.14Q272.75-5.71 274.79-5.51L274.79-5.51L274.79-5.51Q273.77-2.04 270.05 0L270.05 0L270.05 0Q266.32 2.04 262.14 2.04L262.14 2.04L262.14 2.04Q257.96 2.04 255.15 0.46L255.15 0.46L255.15 0.46Q252.35-1.12 251.53-3.77L251.53-3.77L251.53-3.77Q249.90-1.22 246.43 0.41L246.43 0.41L246.43 0.41Q242.96 2.04 238.32 2.04L238.32 2.04L238.32 2.04Q233.68 2.04 229.91 0.82L229.91 0.82L229.91 0.82Q226.13-0.41 223.74-3.06ZM245.26-44.47L245.26-44.47L245.26-44.47Q244.09-42.64 243.07-39.53L243.07-39.53L243.07-39.53Q242.05-36.41 240.36-28.10L240.36-28.10L240.36-28.10Q238.68-19.79 238.68-13.87L238.68-13.87L238.68-13.87Q238.68-7.96 239.60-6.22L239.60-6.22L239.60-6.22Q240.52-4.49 242.15-4.49L242.15-4.49L242.15-4.49Q245.41-4.49 247.81-7.60L247.81-7.60L247.81-7.60Q250.21-10.71 251.12-16.22L251.12-16.22L256.53-46.10L256.53-46.10Q254.39-47.94 251.89-47.94L251.89-47.94L251.89-47.94Q249.39-47.94 247.91-47.12L247.91-47.12L247.91-47.12Q246.43-46.31 245.26-44.47ZM350.78-54.06L350.78-54.06L350.78-54.06Q342.52-54.06 336.50-56.81L336.50-56.81L333.23-40.29L352.92-40.29L352.92-40.29Q352.92-34.88 350.22-31.47L350.22-31.47L350.22-31.47Q347.51-28.05 342.62-28.05L342.62-28.05L342.62-28.05Q337.31-28.05 332.42-29.99L332.42-29.99L332.42-29.99Q331.40-30.40 331.30-30.50L331.30-30.50L325.48 0L303.25 0L316.20-67.32L361.69-67.32L361.69-67.32Q361.69-61.10 358.79-57.58L358.79-57.58L358.79-57.58Q355.88-54.06 350.78-54.06ZM399.74-17.24L399.74-17.24L399.74-17.24Q402.29-15.50 402.29-11.68L402.29-11.68L402.29-11.68Q402.29-7.85 400.35-5.41L400.35-5.41L400.35-5.41Q398.41-2.96 395.25-1.33L395.25-1.33L395.25-1.33Q388.72 2.04 381.68 2.04L381.68 2.04L381.68 2.04Q374.65 2.04 370.52 0.51L370.52 0.51L370.52 0.51Q366.38-1.02 363.63-3.88L363.63-3.88L363.63-3.88Q358.22-9.28 358.22-19.18L358.22-19.18L358.22-19.18Q358.22-34.58 366.59-43.96L366.59-43.96L366.59-43.96Q375.56-54.06 391.17-54.06L391.17-54.06L391.17-54.06Q400.86-54.06 405.65-49.98L405.65-49.98L405.65-49.98Q409.22-46.92 409.22-41.92L409.22-41.92L409.22-41.92Q409.22-23.97 378.22-23.97L378.22-23.97L378.22-23.97Q377.81-21.32 377.81-19.07L377.81-19.07L377.81-19.07Q377.81-14.38 379.90-12.60L379.90-12.60L379.90-12.60Q381.99-10.81 385.87-10.81L385.87-10.81L385.87-10.81Q389.74-10.81 393.87-12.60L393.87-12.60L393.87-12.60Q398.00-14.38 399.74-17.24ZM378.93-28.36L378.93-28.36L378.93-28.36Q386.17-28.36 390.35-32.84L390.35-32.84L390.35-32.84Q394.54-37.13 394.54-43.96L394.54-43.96L394.54-43.96Q394.54-46.31 393.67-47.58L393.67-47.58L393.67-47.58Q392.80-48.86 391.07-48.86L391.07-48.86L391.07-48.86Q389.33-48.86 387.86-48.20L387.86-48.20L387.86-48.20Q386.38-47.53 384.85-45.29L384.85-45.29L384.85-45.29Q381.07-40.19 378.93-28.36ZM444.62-28.66L444.62-28.66L444.62-28.66Q448.29-35.19 448.29-41.82L448.29-41.82L448.29-41.82Q448.29-46.21 445.13-46.21L445.13-46.21L445.13-46.21Q442.68-46.21 440.13-42.02L440.13-42.02L440.13-42.02Q437.48-37.84 436.66-32.44L436.66-32.44L431.36 0L410.24 2.04L420.65-52.02L437.48-54.06L435.64-43.76L435.64-43.76Q440.64-54.06 451.86-54.06L451.86-54.06L451.86-54.06Q457.78-54.06 460.99-51.00L460.99-51.00L460.99-51.00Q464.20-47.94 464.20-41.67L464.20-41.67L464.20-41.67Q464.20-35.39 460.07-31.42L460.07-31.42L460.07-31.42Q455.94-27.44 448.90-27.44L448.90-27.44L448.90-27.44Q445.84-27.44 444.62-28.66ZM508.98 2.04L508.98 2.04L508.98 2.04Q496.64 2.04 496.64-7.55L496.64-7.55L496.64-7.55Q496.74-10.20 497.56-14.69L497.56-14.69L499.39-24.07L499.39-24.07Q502.15-37.33 502.15-40.29L502.15-40.29L502.15-40.29Q502.15-46.21 498.68-46.21L498.68-46.21L498.68-46.21Q492.86-46.21 489.80-31.01L489.80-31.01L483.79 0L463.28 2.04L473.89-52.12L490.62-54.06L488.99-44.06L488.99-44.06Q493.78-54.06 508.47-54.06L508.47-54.06L508.47-54.06Q515.61-54.06 518.62-51.05L518.62-51.05L518.62-51.05Q521.63-48.04 521.63-41.31L521.63-41.31L521.63-41.31Q521.63-34.99 518.36-20.20L518.36-20.20L518.36-20.20Q516.83-13.57 516.83-11.07L516.83-11.07L516.83-11.07Q516.83-8.57 518.21-7.14L518.21-7.14L518.21-7.14Q519.59-5.71 521.63-5.51L521.63-5.51L521.63-5.51Q520.61-2.04 517.09 0L517.09 0L517.09 0Q513.57 2.04 508.98 2.04ZM556.41-63.55L580.48-78.44L580.48-78.44Q584.15-77.01 584.15-71.71L584.15-71.71L584.15-71.71Q584.15-67.22 579.87-64.36L579.87-64.36L579.87-64.36Q576.30-61.91 571.10-61.00L571.10-61.00L558.55-58.65L556.41-63.55ZM534.23-3.06L534.23-3.06L534.23-3.06Q531.83-5.71 530.76-9.89L530.76-9.89L530.76-9.89Q529.69-14.08 529.69-20.91L529.69-20.91L529.69-20.91Q529.69-27.74 532.03-33.97L532.03-33.97L532.03-33.97Q534.38-40.19 538.66-44.68L538.66-44.68L538.66-44.68Q547.43-54.06 561.92-54.06L561.92-54.06L561.92-54.06Q567.12-54.06 570.89-52.33L570.89-52.33L588.34-54.06L580.79-14.28L580.79-14.28Q580.48-13.06 580.48-10.81L580.48-10.81L580.48-10.81Q580.48-8.57 581.86-7.14L581.86-7.14L581.86-7.14Q583.24-5.71 585.28-5.51L585.28-5.51L585.28-5.51Q584.26-2.04 580.53 0L580.53 0L580.53 0Q576.81 2.04 572.63 2.04L572.63 2.04L572.63 2.04Q568.45 2.04 565.64 0.46L565.64 0.46L565.64 0.46Q562.84-1.12 562.02-3.77L562.02-3.77L562.02-3.77Q560.39-1.22 556.92 0.41L556.92 0.41L556.92 0.41Q553.45 2.04 548.81 2.04L548.81 2.04L548.81 2.04Q544.17 2.04 540.40 0.82L540.40 0.82L540.40 0.82Q536.62-0.41 534.23-3.06ZM555.75-44.47L555.75-44.47L555.75-44.47Q554.57-42.64 553.55-39.53L553.55-39.53L553.55-39.53Q552.53-36.41 550.85-28.10L550.85-28.10L550.85-28.10Q549.17-19.79 549.17-13.87L549.17-13.87L549.17-13.87Q549.17-7.96 550.09-6.22L550.09-6.22L550.09-6.22Q551.00-4.49 552.64-4.49L552.64-4.49L552.64-4.49Q555.90-4.49 558.30-7.60L558.30-7.60L558.30-7.60Q560.69-10.71 561.61-16.22L561.61-16.22L567.02-46.10L567.02-46.10Q564.88-47.94 562.38-47.94L562.38-47.94L562.38-47.94Q559.88-47.94 558.40-47.12L558.40-47.12L558.40-47.12Q556.92-46.31 555.75-44.47ZM636.99 2.04L636.99 2.04L636.99 2.04Q624.65 2.04 624.65-7.55L624.65-7.55L624.65-7.55Q624.75-10.20 625.57-14.69L625.57-14.69L627.40-24.07L627.40-24.07Q630.16-37.33 630.16-40.29L630.16-40.29L630.16-40.29Q630.16-46.21 626.69-46.21L626.69-46.21L626.69-46.21Q620.87-46.21 617.81-31.01L617.81-31.01L611.80 0L591.29 2.04L601.90-52.12L618.63-54.06L617.00-44.06L617.00-44.06Q621.79-54.06 636.48-54.06L636.48-54.06L636.48-54.06Q643.62-54.06 646.63-51.05L646.63-51.05L646.63-51.05Q649.64-48.04 649.64-41.31L649.64-41.31L649.64-41.31Q649.64-34.99 646.37-20.20L646.37-20.20L646.37-20.20Q644.84-13.57 644.84-11.07L644.84-11.07L644.84-11.07Q644.84-8.57 646.22-7.14L646.22-7.14L646.22-7.14Q647.60-5.71 649.64-5.51L649.64-5.51L649.64-5.51Q648.62-2.04 645.10 0L645.10 0L645.10 0Q641.58 2.04 636.99 2.04ZM689.93-54.06L689.93-54.06L689.93-54.06Q693.60-54.06 696.46-53.24L696.46-53.24L696.46-53.24Q696.56-53.65 696.76-54.77L696.76-54.77L697.27-57.94L697.27-57.94Q697.68-59.98 698.29-63.34L698.29-63.34L699.92-71.40L720.22-73.44L708.90-14.28L708.90-14.28Q708.80-13.67 708.80-12.65L708.80-12.65L708.80-11.02L708.80-11.02Q708.80-8.77 709.92-7.09L709.92-7.09L709.92-7.09Q711.04-5.41 712.88-5.41L712.88-5.41L712.88-5.41Q710.84-0.61 704.62 1.43L704.62 1.43L704.62 1.43Q702.47 2.04 699.47 2.04L699.47 2.04L699.47 2.04Q696.46 2.04 693.70 0.46L693.70 0.46L693.70 0.46Q690.95-1.12 690.13-3.77L690.13-3.77L690.13-3.77Q688.50-1.12 685.24 0.46L685.24 0.46L685.24 0.46Q681.97 2.04 677.23 2.04L677.23 2.04L677.23 2.04Q672.49 2.04 668.56 0.82L668.56 0.82L668.56 0.82Q664.63-0.41 662.18-3.06L662.18-3.06L662.18-3.06Q657.70-8.26 657.70-20.09L657.70-20.09L657.70-20.09Q657.70-35.39 666.67-44.68L666.67-44.68L666.67-44.68Q675.65-54.06 689.93-54.06ZM689.21-47.94L689.21-47.94L689.21-47.94Q685.44-47.94 683.40-43.86L683.40-43.86L683.40-43.86Q681.36-39.78 679.27-29.68L679.27-29.68L679.27-29.68Q677.18-19.58 677.18-10.51L677.18-10.51L677.18-10.51Q677.18-4.28 680.85-4.28L680.85-4.28L680.85-4.28Q684.11-4.28 686.41-7.55L686.41-7.55L686.41-7.55Q688.70-10.81 689.62-16.22L689.62-16.22L695.13-46.10L695.13-46.10Q692.99-47.94 689.21-47.94ZM762.86-17.24L762.86-17.24L762.86-17.24Q765.41-15.50 765.41-11.68L765.41-11.68L765.41-11.68Q765.41-7.85 763.47-5.41L763.47-5.41L763.47-5.41Q761.53-2.96 758.37-1.33L758.37-1.33L758.37-1.33Q751.84 2.04 744.80 2.04L744.80 2.04L744.80 2.04Q737.77 2.04 733.64 0.51L733.64 0.51L733.64 0.51Q729.50-1.02 726.75-3.88L726.75-3.88L726.75-3.88Q721.34-9.28 721.34-19.18L721.34-19.18L721.34-19.18Q721.34-34.58 729.71-43.96L729.71-43.96L729.71-43.96Q738.68-54.06 754.29-54.06L754.29-54.06L754.29-54.06Q763.98-54.06 768.77-49.98L768.77-49.98L768.77-49.98Q772.34-46.92 772.34-41.92L772.34-41.92L772.34-41.92Q772.34-23.97 741.34-23.97L741.34-23.97L741.34-23.97Q740.93-21.32 740.93-19.07L740.93-19.07L740.93-19.07Q740.93-14.38 743.02-12.60L743.02-12.60L743.02-12.60Q745.11-10.81 748.99-10.81L748.99-10.81L748.99-10.81Q752.86-10.81 756.99-12.60L756.99-12.60L756.99-12.60Q761.12-14.38 762.86-17.24ZM742.05-28.36L742.05-28.36L742.05-28.36Q749.29-28.36 753.47-32.84L753.47-32.84L753.47-32.84Q757.66-37.13 757.66-43.96L757.66-43.96L757.66-43.96Q757.66-46.31 756.79-47.58L756.79-47.58L756.79-47.58Q755.92-48.86 754.19-48.86L754.19-48.86L754.19-48.86Q752.45-48.86 750.98-48.20L750.98-48.20L750.98-48.20Q749.50-47.53 747.97-45.29L747.97-45.29L747.97-45.29Q744.19-40.19 742.05-28.36ZM795.45 1.02L795.45 1.02L795.45 1.02Q790.60 0 788.10-0.46L788.10-0.46L788.10-0.46Q785.60-0.92 782.70-0.92L782.70-0.92L782.70-0.92Q779.79-0.92 776.93 0.10L776.93 0.10L776.93 0.10Q775.40-0.82 774.44-2.65L774.44-2.65L774.44-2.65Q773.47-4.49 773.47-7.34L773.47-7.34L773.47-7.34Q773.47-13.36 779.59-17.95L779.59-17.95L805.49-36.62L805.49-36.62Q798.25-38.66 791.67-38.66L791.67-38.66L791.67-38.66Q785.09-38.66 782.75-34.17L782.75-34.17L782.75-34.17Q779.28-38.25 779.28-44.68L779.28-44.68L779.28-44.68Q779.28-48.96 782.39-51.77L782.39-51.77L782.39-51.77Q785.50-54.57 792.03-54.57L792.03-54.57L792.03-54.57Q795.70-54.57 799.02-54.11L799.02-54.11L799.02-54.11Q802.33-53.65 805.29-53.24L805.29-53.24L810.80-52.43L810.80-52.43Q813.45-52.02 816.15-52.02L816.15-52.02L816.15-52.02Q818.86-52.02 820.90-53.14L820.90-53.14L820.90-53.14Q823.55-50.69 823.55-47.33L823.55-47.33L823.55-47.33Q823.55-42.02 817.02-36.52L817.02-36.52L791.21-17.24L791.21-17.24Q799.17-14.89 803.25-14.89L803.25-14.89L803.25-14.89Q811.82-14.89 815.49-18.97L815.49-18.97L815.49-18.97Q818.35-15.71 818.35-10.05L818.35-10.05L818.35-10.05Q818.35-4.39 814.67-1.17L814.67-1.17L814.67-1.17Q811.00 2.04 804.37 2.04L804.37 2.04L804.37 2.04Q800.29 2.04 795.45 1.02ZM889.54-32.84L910.15-34.68L910.15-34.68Q902.80-18.56 902.80 0.10L902.80 0.10L902.80 0.10Q900.05 2.04 896.02 2.04L896.02 2.04L896.02 2.04Q891.99 2.04 889.44 0.15L889.44 0.15L889.44 0.15Q886.89-1.73 886.38-3.67L886.38-3.67L886.38-3.67Q883.83-1.02 879.70 0.51L879.70 0.51L879.70 0.51Q875.57 2.04 871.18 2.04L871.18 2.04L871.18 2.04Q866.80 2.04 862.97 0.61L862.97 0.61L862.97 0.61Q859.15-0.82 856.19-3.98L856.19-3.98L856.19-3.98Q849.66-10.91 849.66-24.07L849.66-24.07L849.66-24.07Q849.66-44.47 860.57-56.71L860.57-56.71L860.57-56.71Q871.79-69.36 891.68-69.36L891.68-69.36L891.68-69.36Q905.45-69.36 910.35-62.22L910.35-62.22L910.35-62.22Q911.88-59.98 911.88-57.27L911.88-57.27L911.88-57.27Q911.88-54.57 910.71-52.28L910.71-52.28L910.71-52.28Q909.53-49.98 907.70-48.14L907.70-48.14L907.70-48.14Q903.31-44.06 897.91-44.06L897.91-44.06L897.91-44.06Q895.76-44.06 893.72-44.78L893.72-44.78L893.72-44.78Q894.13-47.84 894.13-51.41L894.13-51.41L894.13-51.41Q894.13-54.98 893.88-56.61L893.88-56.61L893.88-56.61Q893.62-58.24 893.01-59.57L893.01-59.57L893.01-59.57Q891.68-62.32 888.78-62.32L888.78-62.32L888.78-62.32Q885.87-62.32 882.66-59.21L882.66-59.21L882.66-59.21Q879.44-56.10 876.89-51.00L876.89-51.00L876.89-51.00Q871.28-39.58 871.28-25.81L871.28-25.81L871.28-25.81Q871.28-19.48 873.73-14.99L873.73-14.99L873.73-14.99Q876.38-10.10 881.08-10.10L881.08-10.10L881.08-10.10Q882.71-10.10 884.19-10.91L884.19-10.91L884.19-10.91Q885.67-11.73 886.28-12.34L886.28-12.34L889.54-32.84ZM919.58-3.06L919.58-3.06L919.58-3.06Q917.18-5.71 916.11-9.89L916.11-9.89L916.11-9.89Q915.04-14.08 915.04-20.91L915.04-20.91L915.04-20.91Q915.04-27.74 917.39-33.97L917.39-33.97L917.39-33.97Q919.73-40.19 924.02-44.68L924.02-44.68L924.02-44.68Q932.79-54.06 947.27-54.06L947.27-54.06L947.27-54.06Q952.48-54.06 956.25-52.33L956.25-52.33L973.69-54.06L966.14-14.28L966.14-14.28Q965.84-13.06 965.84-10.81L965.84-10.81L965.84-10.81Q965.84-8.57 967.22-7.14L967.22-7.14L967.22-7.14Q968.59-5.71 970.63-5.51L970.63-5.51L970.63-5.51Q969.61-2.04 965.89 0L965.89 0L965.89 0Q962.17 2.04 957.98 2.04L957.98 2.04L957.98 2.04Q953.80 2.04 951.00 0.46L951.00 0.46L951.00 0.46Q948.19-1.12 947.38-3.77L947.38-3.77L947.38-3.77Q945.74-1.22 942.28 0.41L942.28 0.41L942.28 0.41Q938.81 2.04 934.17 2.04L934.17 2.04L934.17 2.04Q929.53 2.04 925.75 0.82L925.75 0.82L925.75 0.82Q921.98-0.41 919.58-3.06ZM941.10-44.47L941.10-44.47L941.10-44.47Q939.93-42.64 938.91-39.53L938.91-39.53L938.91-39.53Q937.89-36.41 936.21-28.10L936.21-28.10L936.21-28.10Q934.52-19.79 934.52-13.87L934.52-13.87L934.52-13.87Q934.52-7.96 935.44-6.22L935.44-6.22L935.44-6.22Q936.36-4.49 937.99-4.49L937.99-4.49L937.99-4.49Q941.26-4.49 943.65-7.60L943.65-7.60L943.65-7.60Q946.05-10.71 946.97-16.22L946.97-16.22L952.37-46.10L952.37-46.10Q950.23-47.94 947.73-47.94L947.73-47.94L947.73-47.94Q945.23-47.94 943.76-47.12L943.76-47.12L943.76-47.12Q942.28-46.31 941.10-44.47ZM1011.13-28.66L1011.13-28.66L1011.13-28.66Q1014.80-35.19 1014.80-41.82L1014.80-41.82L1014.80-41.82Q1014.80-46.21 1011.64-46.21L1011.64-46.21L1011.64-46.21Q1009.19-46.21 1006.64-42.02L1006.64-42.02L1006.64-42.02Q1003.99-37.84 1003.17-32.44L1003.17-32.44L997.87 0L976.75 2.04L987.16-52.02L1003.99-54.06L1002.15-43.76L1002.15-43.76Q1007.15-54.06 1018.37-54.06L1018.37-54.06L1018.37-54.06Q1024.28-54.06 1027.50-51.00L1027.50-51.00L1027.50-51.00Q1030.71-47.94 1030.71-41.67L1030.71-41.67L1030.71-41.67Q1030.71-35.39 1026.58-31.42L1026.58-31.42L1026.58-31.42Q1022.45-27.44 1015.41-27.44L1015.41-27.44L1015.41-27.44Q1012.35-27.44 1011.13-28.66ZM1082.42-42.43L1082.42-42.43L1082.42-42.43Q1082.42-38.15 1078.85-35.50L1078.85-35.50L1078.85-35.50Q1075.28-32.84 1069.47-32.84L1069.47-32.84L1069.47-32.84Q1067.02-32.84 1065.59-33.56L1065.59-33.56L1065.59-33.56Q1066.72-36.21 1067.07-39.53L1067.07-39.53L1067.07-39.53Q1067.43-42.84 1067.43-43.76L1067.43-43.76L1067.43-43.76Q1067.43-48.04 1064.47-48.04L1064.47-48.04L1064.47-48.04Q1062.43-48.04 1060.14-45.49L1060.14-45.49L1060.14-45.49Q1057.84-42.94 1055.90-38.96L1055.90-38.96L1055.90-38.96Q1051.62-29.78 1051.62-20.50L1051.62-20.50L1051.62-20.50Q1051.62-15.40 1053.56-13.11L1053.56-13.11L1053.56-13.11Q1055.50-10.81 1059.78-10.81L1059.78-10.81L1059.78-10.81Q1065.70-10.81 1070.39-15.71L1070.39-15.71L1070.39-15.71Q1071.71-17.24 1072.43-18.97L1072.43-18.97L1072.43-18.97Q1076.30-16.93 1076.30-11.32L1076.30-11.32L1076.30-11.32Q1076.30-5.61 1069.98-1.84L1069.98-1.84L1069.98-1.84Q1063.45 2.04 1053.05 2.04L1053.05 2.04L1053.05 2.04Q1032.34 2.04 1032.34-19.89L1032.34-19.89L1032.34-19.89Q1032.34-35.90 1041.42-45.08L1041.42-45.08L1041.42-45.08Q1050.19-54.06 1066.31-54.06L1066.31-54.06L1066.31-54.06Q1082.42-54.06 1082.42-42.43ZM1109.45-5.61L1109.45-5.61L1109.45-5.61Q1106.29 2.04 1096.19 2.04L1096.19 2.04L1096.19 2.04Q1091.09 2.04 1087.93-1.53L1087.93-1.53L1087.93-1.53Q1085.18-4.49 1085.18-7.85L1085.18-7.85L1085.18-7.85Q1085.18-16.12 1088.95-32.23L1088.95-32.23L1092.73-52.02L1113.23-54.06L1107.01-21.83L1107.01-21.83Q1105.27-14.28 1105.27-11.63L1105.27-11.63L1105.27-11.63Q1105.27-5.81 1109.45-5.61ZM1092.52-63.55L1116.59-78.44L1116.59-78.44Q1120.27-77.01 1120.27-71.71L1120.27-71.71L1120.27-71.71Q1120.27-67.22 1115.98-64.36L1115.98-64.36L1115.98-64.36Q1112.41-61.91 1107.21-61.00L1107.21-61.00L1094.66-58.65L1092.52-63.55ZM1122.56-3.06L1122.56-3.06L1122.56-3.06Q1120.16-5.71 1119.09-9.89L1119.09-9.89L1119.09-9.89Q1118.02-14.08 1118.02-20.91L1118.02-20.91L1118.02-20.91Q1118.02-27.74 1120.37-33.97L1120.37-33.97L1120.37-33.97Q1122.71-40.19 1127.00-44.68L1127.00-44.68L1127.00-44.68Q1135.77-54.06 1150.25-54.06L1150.25-54.06L1150.25-54.06Q1155.46-54.06 1159.23-52.33L1159.23-52.33L1176.67-54.06L1169.12-14.28L1169.12-14.28Q1168.82-13.06 1168.82-10.81L1168.82-10.81L1168.82-10.81Q1168.82-8.57 1170.20-7.14L1170.20-7.14L1170.20-7.14Q1171.57-5.71 1173.61-5.51L1173.61-5.51L1173.61-5.51Q1172.59-2.04 1168.87 0L1168.87 0L1168.87 0Q1165.15 2.04 1160.96 2.04L1160.96 2.04L1160.96 2.04Q1156.78 2.04 1153.98 0.46L1153.98 0.46L1153.98 0.46Q1151.17-1.12 1150.36-3.77L1150.36-3.77L1150.36-3.77Q1148.72-1.22 1145.26 0.41L1145.26 0.41L1145.26 0.41Q1141.79 2.04 1137.15 2.04L1137.15 2.04L1137.15 2.04Q1132.51 2.04 1128.73 0.82L1128.73 0.82L1128.73 0.82Q1124.96-0.41 1122.56-3.06ZM1144.08-44.47L1144.08-44.47L1144.08-44.47Q1142.91-42.64 1141.89-39.53L1141.89-39.53L1141.89-39.53Q1140.87-36.41 1139.19-28.10L1139.19-28.10L1139.19-28.10Q1137.50-19.79 1137.50-13.87L1137.50-13.87L1137.50-13.87Q1137.50-7.96 1138.42-6.22L1138.42-6.22L1138.42-6.22Q1139.34-4.49 1140.97-4.49L1140.97-4.49L1140.97-4.49Q1144.24-4.49 1146.63-7.60L1146.63-7.60L1146.63-7.60Q1149.03-10.71 1149.95-16.22L1149.95-16.22L1155.35-46.10L1155.35-46.10Q1153.21-47.94 1150.71-47.94L1150.71-47.94L1150.71-47.94Q1148.21-47.94 1146.74-47.12L1146.74-47.12L1146.74-47.12Q1145.26-46.31 1144.08-44.47Z" fill="#fdfdfd"></path></g></g><style>text {
  font-size: 64px;
  font-family: Arial Black;
  dominant-baseline: central;
  text-anchor: middle;
}</style></svg>